<svg width="200" height="80" viewBox="0 0 200 80" fill="none" xmlns="http://www.w3.org/2000/svg">
  <!-- Background rectangle -->
  <rect width="200" height="80" rx="8" fill="#1f2937"/>
  
  <!-- Stylized "G" -->
  <path d="M30 20 C30 15, 35 10, 40 10 L60 10 C65 10, 70 15, 70 20 L70 30 C70 35, 65 40, 60 40 L45 40 L45 50 L60 50 C65 50, 70 55, 70 60 L70 70 C70 75, 65 80, 60 80 L40 80 C35 80, 30 75, 30 70 L30 20 Z" fill="#3b82f6"/>
  
  <!-- "azdecki" text -->
  <text x="85" y="35" font-family="Arial, sans-serif" font-size="24" font-weight="bold" fill="#ffffff">azdecki</text>
  
  <!-- "Consortium" text -->
  <text x="85" y="55" font-family="Arial, sans-serif" font-size="14" fill="#9ca3af">Consortium</text>
  
  <!-- Decorative line -->
  <line x1="85" y1="60" x2="180" y2="60" stroke="#3b82f6" stroke-width="2"/>
</svg> 